<svg width="2000" height="500" viewBox="0 0 2000 500" fill="none" xmlns="http://www.w3.org/2000/svg">
<rect x="0.5" y="0.5" width="1999" height="499" stroke="black"/>
<path d="M568.856 211.656H602.52C608.408 211.656 613.784 212.595 618.648 214.472C623.512 216.349 627.651 219.165 631.064 222.92C634.477 226.589 637.123 231.24 639 236.872C640.877 242.419 641.816 248.904 641.816 256.328C641.816 263.752 640.877 270.28 639 275.912C637.123 281.459 634.477 286.109 631.064 289.864C627.651 293.533 623.512 296.307 618.648 298.184C613.784 300.061 608.408 301 602.52 301H568.856V211.656ZM602.52 283.72C608.323 283.72 612.888 282.099 616.216 278.856C619.544 275.613 621.208 270.408 621.208 263.24V249.416C621.208 242.248 619.544 237.043 616.216 233.8C612.888 230.557 608.323 228.936 602.52 228.936H588.312V283.72H602.52ZM666.554 226.632C662.714 226.632 659.898 225.779 658.106 224.072C656.399 222.28 655.546 220.019 655.546 217.288V214.472C655.546 211.741 656.399 209.523 658.106 207.816C659.898 206.024 662.714 205.128 666.554 205.128C670.394 205.128 673.167 206.024 674.874 207.816C676.666 209.523 677.562 211.741 677.562 214.472V217.288C677.562 220.019 676.666 222.28 674.874 224.072C673.167 225.779 670.394 226.632 666.554 226.632ZM657.082 233.8H676.026V301H657.082V233.8ZM755.915 305.864C755.915 309.448 755.275 312.605 753.995 315.336C752.8 318.067 750.795 320.371 747.979 322.248C745.163 324.211 741.408 325.661 736.715 326.6C732.107 327.624 726.39 328.136 719.563 328.136C713.76 328.136 708.811 327.752 704.715 326.984C700.704 326.301 697.419 325.277 694.859 323.912C692.384 322.632 690.55 321.011 689.355 319.048C688.246 317.171 687.691 314.995 687.691 312.52C687.691 308.765 688.8 305.821 691.019 303.688C693.238 301.555 696.31 300.232 700.235 299.72V298.312C696.992 297.715 694.56 296.349 692.939 294.216C691.318 291.997 690.507 289.437 690.507 286.536C690.507 284.744 690.848 283.208 691.531 281.928C692.299 280.563 693.238 279.411 694.347 278.472C695.542 277.448 696.907 276.637 698.443 276.04C699.979 275.443 701.515 274.973 703.051 274.632V274.12C698.955 272.243 695.926 269.683 693.963 266.44C692 263.112 691.019 259.272 691.019 254.92C691.019 248.093 693.366 242.632 698.059 238.536C702.838 234.355 710.091 232.264 719.819 232.264C724.256 232.264 728.054 232.691 731.211 233.544V230.984C731.211 227.4 732.064 224.84 733.771 223.304C735.563 221.683 738.08 220.872 741.323 220.872H751.947V234.952H737.099V235.72C741.024 237.597 743.926 240.2 745.803 243.528C747.68 246.771 748.619 250.568 748.619 254.92C748.619 261.661 746.23 267.08 741.451 271.176C736.758 275.187 729.547 277.192 719.819 277.192C715.467 277.192 711.499 276.723 707.915 275.784C705.952 277.064 704.971 278.856 704.971 281.16C704.971 282.781 705.568 284.061 706.763 285C708.043 285.853 710.134 286.28 713.035 286.28H732.491C740.683 286.28 746.614 287.987 750.283 291.4C754.038 294.813 755.915 299.635 755.915 305.864ZM738.123 308.424C738.123 306.461 737.355 304.968 735.819 303.944C734.283 302.92 731.595 302.408 727.755 302.408H704.715C703.862 303.261 703.222 304.2 702.795 305.224C702.454 306.333 702.283 307.4 702.283 308.424C702.283 310.899 703.35 312.691 705.483 313.8C707.616 314.995 711.243 315.592 716.363 315.592H724.043C729.163 315.592 732.79 314.995 734.923 313.8C737.056 312.691 738.123 310.899 738.123 308.424ZM719.819 264.776C723.574 264.776 726.347 264.008 728.139 262.472C730.016 260.851 730.955 258.547 730.955 255.56V254.024C730.955 251.037 730.016 248.776 728.139 247.24C726.347 245.619 723.574 244.808 719.819 244.808C716.064 244.808 713.248 245.619 711.371 247.24C709.579 248.776 708.683 251.037 708.683 254.024V255.56C708.683 258.547 709.579 260.851 711.371 262.472C713.248 264.008 716.064 264.776 719.819 264.776ZM773.804 226.632C769.964 226.632 767.148 225.779 765.356 224.072C763.649 222.28 762.796 220.019 762.796 217.288V214.472C762.796 211.741 763.649 209.523 765.356 207.816C767.148 206.024 769.964 205.128 773.804 205.128C777.644 205.128 780.417 206.024 782.124 207.816C783.916 209.523 784.812 211.741 784.812 214.472V217.288C784.812 220.019 783.916 222.28 782.124 224.072C780.417 225.779 777.644 226.632 773.804 226.632ZM764.332 233.8H783.276V301H764.332V233.8ZM824.509 301C817.938 301 812.946 299.336 809.533 296.008C806.205 292.68 804.541 287.816 804.541 281.416V248.52H795.069V233.8H799.805C802.365 233.8 804.114 233.203 805.053 232.008C805.992 230.728 806.461 228.936 806.461 226.632V215.624H823.485V233.8H836.797V248.52H823.485V286.28H835.773V301H824.509ZM899.621 301C896.208 301 893.349 299.933 891.045 297.8C888.826 295.667 887.418 292.808 886.821 289.224H886.053C885.029 293.576 882.768 296.904 879.269 299.208C875.77 301.427 871.461 302.536 866.341 302.536C859.6 302.536 854.437 300.744 850.853 297.16C847.269 293.576 845.477 288.84 845.477 282.952C845.477 275.869 848.037 270.621 853.157 267.208C858.362 263.709 865.402 261.96 874.277 261.96H884.901V257.736C884.901 254.493 884.048 251.933 882.341 250.056C880.634 248.093 877.776 247.112 873.765 247.112C870.01 247.112 867.024 247.923 864.805 249.544C862.586 251.165 860.752 253 859.301 255.048L848.037 245.064C850.768 241.053 854.181 237.939 858.277 235.72C862.458 233.416 868.09 232.264 875.173 232.264C884.73 232.264 891.898 234.355 896.677 238.536C901.456 242.717 903.845 248.819 903.845 256.84V286.28H910.117V301H899.621ZM873.381 289.352C876.538 289.352 879.226 288.669 881.445 287.304C883.749 285.939 884.901 283.72 884.901 280.648V272.712H875.685C868.261 272.712 864.549 275.229 864.549 280.264V282.184C864.549 284.659 865.317 286.493 866.853 287.688C868.389 288.797 870.565 289.352 873.381 289.352ZM941.648 301C935.163 301 930.384 299.421 927.312 296.264C924.325 293.107 922.832 288.541 922.832 282.568V206.28H941.776V286.28H950.224V301H941.648ZM991.534 302.536C983.683 302.536 977.027 301.213 971.566 298.568C966.105 295.837 961.454 292.339 957.614 288.072L970.414 275.144C976.473 281.971 983.939 285.384 992.814 285.384C997.593 285.384 1001.13 284.403 1003.44 282.44C1005.74 280.477 1006.89 277.875 1006.89 274.632C1006.89 272.157 1006.21 270.109 1004.85 268.488C1003.48 266.781 1000.71 265.629 996.526 265.032L987.694 263.88C978.222 262.685 971.267 259.827 966.83 255.304C962.478 250.781 960.302 244.765 960.302 237.256C960.302 233.245 961.07 229.576 962.606 226.248C964.142 222.92 966.318 220.061 969.134 217.672C972.035 215.283 975.534 213.448 979.63 212.168C983.811 210.803 988.547 210.12 993.838 210.12C1000.58 210.12 1006.51 211.187 1011.63 213.32C1016.75 215.453 1021.14 218.568 1024.81 222.664L1011.89 235.72C1009.75 233.245 1007.15 231.24 1004.08 229.704C1001.09 228.083 997.294 227.272 992.686 227.272C988.334 227.272 985.091 228.04 982.958 229.576C980.825 231.112 979.758 233.245 979.758 235.976C979.758 239.048 980.569 241.267 982.19 242.632C983.897 243.997 986.627 244.979 990.382 245.576L999.214 246.984C1008.43 248.435 1015.26 251.293 1019.69 255.56C1024.13 259.741 1026.35 265.715 1026.35 273.48C1026.35 277.747 1025.58 281.672 1024.05 285.256C1022.51 288.84 1020.25 291.912 1017.26 294.472C1014.36 297.032 1010.73 299.037 1006.38 300.488C1002.03 301.853 997.081 302.536 991.534 302.536ZM1068.72 302.536C1063.77 302.536 1059.33 301.725 1055.41 300.104C1051.57 298.483 1048.28 296.136 1045.55 293.064C1042.91 289.992 1040.86 286.28 1039.41 281.928C1037.96 277.576 1037.23 272.712 1037.23 267.336C1037.23 261.96 1037.96 257.096 1039.41 252.744C1040.86 248.392 1042.91 244.723 1045.55 241.736C1048.28 238.664 1051.57 236.317 1055.41 234.696C1059.33 233.075 1063.77 232.264 1068.72 232.264C1073.67 232.264 1078.07 233.075 1081.91 234.696C1085.83 236.317 1089.12 238.664 1091.76 241.736C1094.49 244.723 1096.58 248.392 1098.03 252.744C1099.48 257.096 1100.21 261.96 1100.21 267.336C1100.21 272.712 1099.48 277.576 1098.03 281.928C1096.58 286.28 1094.49 289.992 1091.76 293.064C1089.12 296.136 1085.83 298.483 1081.91 300.104C1078.07 301.725 1073.67 302.536 1068.72 302.536ZM1068.72 287.56C1072.48 287.56 1075.38 286.408 1077.43 284.104C1079.47 281.8 1080.5 278.515 1080.5 274.248V260.552C1080.5 256.285 1079.47 253 1077.43 250.696C1075.38 248.392 1072.48 247.24 1068.72 247.24C1064.97 247.24 1062.07 248.392 1060.02 250.696C1057.97 253 1056.95 256.285 1056.95 260.552V274.248C1056.95 278.515 1057.97 281.8 1060.02 284.104C1062.07 286.408 1064.97 287.56 1068.72 287.56ZM1132.52 301C1126.04 301 1121.26 299.421 1118.19 296.264C1115.2 293.107 1113.71 288.541 1113.71 282.568V206.28H1132.65V286.28H1141.1V301H1132.52ZM1192.14 289.736H1191.5C1190.9 291.443 1190.09 293.064 1189.07 294.6C1188.13 296.136 1186.89 297.501 1185.35 298.696C1183.82 299.891 1181.98 300.829 1179.85 301.512C1177.8 302.195 1175.41 302.536 1172.68 302.536C1165.77 302.536 1160.52 300.275 1156.94 295.752C1153.44 291.144 1151.69 284.573 1151.69 276.04V233.8H1170.63V274.376C1170.63 278.472 1171.36 281.629 1172.81 283.848C1174.26 286.067 1176.73 287.176 1180.23 287.176C1181.68 287.176 1183.13 286.963 1184.59 286.536C1186.04 286.109 1187.32 285.512 1188.43 284.744C1189.53 283.891 1190.43 282.867 1191.11 281.672C1191.8 280.477 1192.14 279.069 1192.14 277.448V233.8H1211.08V301H1192.14V289.736ZM1252.26 301C1245.69 301 1240.7 299.336 1237.28 296.008C1233.96 292.68 1232.29 287.816 1232.29 281.416V248.52H1222.82V233.8H1227.56C1230.12 233.8 1231.86 233.203 1232.8 232.008C1233.74 230.728 1234.21 228.936 1234.21 226.632V215.624H1251.24V233.8H1264.55V248.52H1251.24V286.28H1263.52V301H1252.26ZM1287.18 226.632C1283.34 226.632 1280.52 225.779 1278.73 224.072C1277.02 222.28 1276.17 220.019 1276.17 217.288V214.472C1276.17 211.741 1277.02 209.523 1278.73 207.816C1280.52 206.024 1283.34 205.128 1287.18 205.128C1291.02 205.128 1293.79 206.024 1295.5 207.816C1297.29 209.523 1298.19 211.741 1298.19 214.472V217.288C1298.19 220.019 1297.29 222.28 1295.5 224.072C1293.79 225.779 1291.02 226.632 1287.18 226.632ZM1277.71 233.8H1296.65V301H1277.71V233.8ZM1341.6 302.536C1336.65 302.536 1332.21 301.725 1328.28 300.104C1324.44 298.483 1321.16 296.136 1318.43 293.064C1315.78 289.992 1313.73 286.28 1312.28 281.928C1310.83 277.576 1310.11 272.712 1310.11 267.336C1310.11 261.96 1310.83 257.096 1312.28 252.744C1313.73 248.392 1315.78 244.723 1318.43 241.736C1321.16 238.664 1324.44 236.317 1328.28 234.696C1332.21 233.075 1336.65 232.264 1341.6 232.264C1346.55 232.264 1350.94 233.075 1354.78 234.696C1358.71 236.317 1361.99 238.664 1364.64 241.736C1367.37 244.723 1369.46 248.392 1370.91 252.744C1372.36 257.096 1373.08 261.96 1373.08 267.336C1373.08 272.712 1372.36 277.576 1370.91 281.928C1369.46 286.28 1367.37 289.992 1364.64 293.064C1361.99 296.136 1358.71 298.483 1354.78 300.104C1350.94 301.725 1346.55 302.536 1341.6 302.536ZM1341.6 287.56C1345.35 287.56 1348.25 286.408 1350.3 284.104C1352.35 281.8 1353.37 278.515 1353.37 274.248V260.552C1353.37 256.285 1352.35 253 1350.3 250.696C1348.25 248.392 1345.35 247.24 1341.6 247.24C1337.84 247.24 1334.94 248.392 1332.89 250.696C1330.84 253 1329.82 256.285 1329.82 260.552V274.248C1329.82 278.515 1330.84 281.8 1332.89 284.104C1334.94 286.408 1337.84 287.56 1341.6 287.56ZM1386.58 301V233.8H1405.53V245.192H1406.29C1407.49 241.693 1409.58 238.664 1412.57 236.104C1415.55 233.544 1419.69 232.264 1424.98 232.264C1431.89 232.264 1437.1 234.568 1440.6 239.176C1444.18 243.784 1445.97 250.355 1445.97 258.888V301H1427.03V260.424C1427.03 256.072 1426.35 252.872 1424.98 250.824C1423.62 248.691 1421.18 247.624 1417.69 247.624C1416.15 247.624 1414.66 247.837 1413.21 248.264C1411.76 248.605 1410.43 249.203 1409.24 250.056C1408.13 250.909 1407.23 251.976 1406.55 253.256C1405.87 254.451 1405.53 255.859 1405.53 257.48V301H1386.58ZM1485.62 302.536C1479.13 302.536 1473.67 301.512 1469.23 299.464C1464.79 297.331 1460.83 294.344 1457.33 290.504L1468.46 279.24C1470.85 281.885 1473.5 283.976 1476.4 285.512C1479.3 287.048 1482.59 287.816 1486.26 287.816C1490.01 287.816 1492.61 287.261 1494.06 286.152C1495.51 284.957 1496.24 283.379 1496.24 281.416C1496.24 278.259 1493.98 276.381 1489.46 275.784L1482.16 274.888C1467.06 273.011 1459.5 266.099 1459.5 254.152C1459.5 250.909 1460.1 247.965 1461.3 245.32C1462.58 242.589 1464.33 240.285 1466.54 238.408C1468.85 236.445 1471.58 234.952 1474.74 233.928C1477.98 232.819 1481.61 232.264 1485.62 232.264C1489.11 232.264 1492.19 232.52 1494.83 233.032C1497.56 233.459 1499.95 234.141 1502 235.08C1504.13 235.933 1506.05 237.043 1507.76 238.408C1509.55 239.688 1511.3 241.139 1513.01 242.76L1502.13 253.896C1499.99 251.763 1497.56 250.099 1494.83 248.904C1492.19 247.624 1489.46 246.984 1486.64 246.984C1483.4 246.984 1481.09 247.496 1479.73 248.52C1478.36 249.544 1477.68 250.909 1477.68 252.616C1477.68 254.408 1478.15 255.816 1479.09 256.84C1480.11 257.779 1481.99 258.461 1484.72 258.888L1492.27 259.912C1507.03 261.875 1514.42 268.616 1514.42 280.136C1514.42 283.379 1513.73 286.365 1512.37 289.096C1511 291.827 1509.04 294.216 1506.48 296.264C1504.01 298.227 1500.98 299.763 1497.39 300.872C1493.89 301.981 1489.97 302.536 1485.62 302.536Z" fill="white"/>
<g clip-path="url(#clip0_4_9)">
<path fill-rule="evenodd" clip-rule="evenodd" d="M375.298 170.514H425.12C480.15 170.514 524.763 215.128 524.763 270.158C524.763 325.188 480.15 369.802 425.12 369.802V319.979C452.625 319.979 474.942 297.663 474.942 270.158C474.942 242.653 452.625 220.336 425.12 220.336H375.298V170.514Z" fill="white"/>
<path d="M375.298 220.346H325.476V270.168H375.298V220.346Z" fill="white"/>
<path d="M425.12 270.168H375.298V319.99H425.12V270.168Z" fill="white"/>
<path d="M375.298 319.989H325.476V369.811H375.298V319.989Z" fill="white"/>
</g>
<defs>
<clipPath id="clip0_4_9">
<rect width="200" height="200" fill="white" transform="translate(325 170)"/>
</clipPath>
</defs>
</svg>
